# xmcd CD database file
#
# Track frame offsets:
#	150
#	22720
#	46149
#	77277
#	101015
#	127378
#	155591
#	177243
#	204028
#	231657
#	253534
#	274210
#
# Disc length: 4027 seconds
#
# Revision: 1
# Processed by: cddbd v1.5.1PL0 Copyright (c) Steve Scherf et al.
# Submitted via: CDex 1.51
#
DISCID=980fb90c
DTITLE=Fedreghini Paolo - Marco Bianc  - Several People 
DYEAR=1900
DGENRE=Jazz
TTITLE0=Another Face
TTITLE1=Stay
TTITLE2=Spread Your Love
TTITLE3=Circus In C Minor
TTITLE4=Nothing Has To Change
TTITLE5=Blue Night In Africa
TTITLE6=You Are A Star
TTITLE7=Please Don't Leave
TTITLE8=Urban Savage
TTITLE9=Oriental Smile
TTITLE10=Onda Espumante
TTITLE11=Theme Of Solitary Notes
EXTD=
EXTT0=
EXTT1=
EXTT2=
EXTT3=
EXTT4=
EXTT5=
EXTT6=
EXTT7=
EXTT8=
EXTT9=
EXTT10=
EXTT11=
PLAYORDER=
